<?xml version="1.0" encoding="utf-8"?>
<!-- Generator: Adobe Illustrator 21.0.0, SVG Export Plug-In . SVG Version: 6.00 Build 0)  -->
<svg version="1.1" id="Layer_1" xmlns="http://www.w3.org/2000/svg" xmlns:xlink="http://www.w3.org/1999/xlink" x="0px" y="0px"
	 viewBox="0 0 793.7 359.3" style="enable-background:new 0 0 793.7 359.3;" xml:space="preserve">
<style type="text/css">
	.st0{fill:none;}
	.st1{fill:#FEC424;}
	.st2{fill:#542C82;}
	.st3{fill:#FFFFFF;}
</style>
<path class="st0" d="M350,187.6c2.2-2.1-0.4-12-1.2-14.3l-3.4-10.9l-10.9,8.5l-5.3,13.4c0.2,1.4,2.8,3.7,4,3.8h7.5h6.2
	C347.6,188.3,349.4,188.2,350,187.6z"/>
<path class="st0" d="M201.9,188.3c9.2,0,16.8-3.9,20.7-11l-35.7-0.1l-4.1,5.5c-0.4,0.6-1.8,2.6-1.4,3.5c0.6,1.7,6,2.2,7.4,2.2h7.4
	L201.9,188.3L201.9,188.3z"/>
<g id="colors">
	<rect x="-60.5" y="2.6" class="st1" width="40" height="40"/>
	<rect x="-60.5" y="52.6" class="st2" width="40" height="40"/>
	<rect x="-60" y="103.1" class="st3" width="40" height="40"/>
</g>
<g>
	<path class="st3" d="M770.3,241.2c-1.5-0.5-3.1-0.6-4.7-0.7c-8.6-0.8-16.4,2.2-24.4,4.7c-3.1,1-6.1,3-10,1.5
		c3.2-13.4,3.7-27,5.4-40.5c0.9-7.1,5.2-11,11.7-12.9c1.9-0.5,3.7-1,5.9-1.6c-0.4-1.2-0.5-1.7-0.8-2.2c-0.4-0.6-0.9-1.1-1.4-1.6
		c-9.6-10.5-21.5-11.9-34.6-9.2c-11.4,2.3-19.9,9.4-27.6,17.3c-14.3,14.6-27,30.6-41.8,44.7c-6.9,6.6-14.5,11.8-23.2,15.8
		c-9.9,4.6-19.1,2.8-27.8-2.8c-7-4.5-9.2-12.3-5.5-17.9c2.7-4,6.7-6.3,11.1-8c3.3-1.3,5.1,1.8,7.5,3c2.1,1,4.2,2,6.4,2.6
		c7.5,1.9,16.5-3.2,18.3-10.1c2.5-9.8,0-14-10-17c-1.2-0.4-2.4-0.8-3.6-1c-1.7-0.4-2.4-1.5-2.2-3.1c0.4-5.1,1.1-10.1,5-14.1
		c2.6,1.7,3.6,4.3,5.2,6.3c7.6,9.8,20.9,10.3,28.9,1.1c7.4-8.4,4.3-22.2-5.7-26.9c-9.2-4.3-19-4.8-28.7-3.8
		c-8,0.8-15.3,4.2-20.2,11.3c-5.1,7.4-6.6,15.6-5.8,24.4c0.4,4.7-1.2,6.7-6,7.9c-7.1,1.7-13.5,5.3-18.2,11.2
		c-6.9,8.6-7.6,18.8-7.9,29.2c-0.1,4.4-3.5,7.5-8.9,7.4c-4.1-0.1-7-2.1-7.3-6.8c-0.3-4.2,0.6-8.1,2.2-11.9
		c5.3-12.6,10.7-25.2,15.8-37.8c11.7-28.4,23.3-56.8,34.7-85.3c2.1-5.1,5-10,6-15.9c-8-1.1-15.5,0.4-22.9-1.3
		c-2.1-0.5-3,1.4-3.7,3.1c-8.4,19.6-16.7,39.2-25.3,58.7c-10.6,24.2-21.9,48.2-32.1,72.6c-4.6,11-12.1,18.5-21.9,24.4
		c-10.4,6.2-21.9,6-31-0.8c-5.9-4.5-6.4-10.6-1.4-16c3.6-3.9,7.8-6.6,12.5-9c2.1-1.1,3.7-1.1,5.8,0.3c4.4,2.8,9.4,4,14.7,3.8
		c7.7-0.2,13.4-4.8,14.3-12.1c1.2-9.5-1.1-13-10.9-14.7c-3.9-0.7-5.1-2.5-5.6-5.7c-0.6-4.2,0.9-7.5,4.4-10.4c2,3.8,4.9,6.4,7.8,9
		c5.4,5,12.8,4.9,18.3,0c3.6-3.2,6.5-7,8.5-11.5c4-9,1.5-15.9-7.5-20.1c-8-3.7-16.6-3.8-25.1-3c-15.2,1.5-24.5,10.2-26.8,25.1
		c-0.8,5.5-0.1,11.3-0.1,16.7c-27.6,6.6-34.6,20.5-39.3,39.3c-1.2,5-3.7,5.9-8.5,6.8c13.3-30,28-58.6,40.7-88.1
		c-3.9-1.5-6.6-0.8-9.2-1.1c-2.6-0.3-5.3-0.7-7.9-0.9c-8.3-0.7-8.3-0.6-11.6,7.4c-0.6,1.4-0.8,3.1-2.6,3.6
		c-7-9.3-27.6-15.8-40.4-8.5c-29.7,17.1-44.6,44.2-51.5,76.6c-0.9,4.4-2.8,7.7-6.2,10.1c-2.8,1.9-5.8,5.8-9.2,3.6
		c-4.3-2.8-1.3-7.2,0-10.6c7.5-19.9,15.2-39.8,22.8-59.7c5.5-14.6-1.5-24.6-17-25c-10.2-0.2-20.2,3-30.7,0.3c-5.3-1.4-11.3,0-17-0.3
		c-3.5-0.2-5.2,1.2-6.3,4.2c-1.9,5-4,9.9-6.1,14.8c-10.1,23.9-20.2,47.7-30.3,71.6c-2.9,6.8-5.7,13.6-9,21.6c9,0,16.7-0.3,24.5,0.1
		c4.4,0.2,6.4-1.6,7.9-5.4c10.3-25.3,21.3-50.4,32.4-75.3c3-6.7,11.2-11.6,18.4-10.7c5.5,0.6,7.2,3.2,5.1,8.5
		c-2.4,5.9-5.2,11.7-8,17.4c-8,16-16.1,32-19.3,49.9c-2.5,14.2,5.4,24.4,19,23.3c6.2-0.5,12.1-2.5,17.5-6c5.6-3.7,10.6-8,14.3-14
		c8.3,9.8,18.8,12.5,30.4,13c-4.1,2.2-8.1,3.8-12.1,5.7c-16.8,7.9-32.1,17.7-40.4,35.3c-6,12.7-4.2,28.3,4.1,36.9
		c8.4,8.6,19,8.1,29.4,6.6c13.7-2.1,22-11.8,28.2-23.2c9.5-17.3,18.4-34.9,27.3-52.5c1.8-3.5,4.2-6.1,7.5-7.9
		c4.7-2.6,9.4-5,14.1-7.6c3.1-1.8,5.6-1.4,8.3,0.8c4.3,3.4,9.2,6.1,14.3,8c15.6,5.9,30.8,6,45.5-2.9c3-1.8,5-5,8.8-5.9
		c0.7,0.9,1.4,1.7,1.9,2.6c7.8,13.2,21.1,16.3,34.6,10.8c6.2-2.5,11.5-6.3,16.5-10.5c2.6-2.2,4.7-2,7.5-0.2
		c7.7,4.9,16.1,8.1,25.4,8.8c16.7,1.2,30.4-5.4,42.9-15.7c3.3-2.7,6.6-5.5,10.3-8.5c0.1,1.5,0.2,2.2,0.3,2.9
		c1,10.2,4.5,19,15.2,22.2c15.7,4.7,31.2,3.5,46.4-2.4c18.5-7.1,32.3-22.7,51.6-28.3c1.8-0.5,3.2-1.9,3.1-3.9
		C773.6,242.8,771.9,241.8,770.3,241.2z M364.7,334c-0.9,1.1-2,2-3,3c-3.3,3.3-7.7,3.9-11.3,1.9c-3.4-1.8-3.7-6.1-3.3-10
		c1.2-9.4,6.8-16.3,13.7-22c6.5-5.4,13.5-10.1,23.2-12.3C379,309.3,373.5,322.5,364.7,334z M420.2,223.1c-5,9.6-10.8,18.8-20.5,24.7
		c-0.8,0.5-1.5,1-2.2,1.5c-4,2.3-8.1,5-12.9,2.8c-5.3-2.4-3.5-7.6-3.9-12.1c-0.5-12.6,6.5-22.7,12.3-33.2c3.8-6.9,9-12.8,15.6-17.2
		c4.3-2.9,8.9-4.6,13.9-1.9c4.8,2.6,4.9,7.2,5.2,12C428.2,208.4,424,215.8,420.2,223.1z M709.8,219.3c-1.7,8.3-3.9,16.6-7.8,24.2
		c-1.9,3.8-4.6,6.8-9.2,5c-6.5-2.5-12.4-6.8-20-6.3c0-0.5-0.1-1-0.1-1.4c12.6-12.2,25.3-24.3,38.8-37.4
		C712.1,209.8,710.8,214.6,709.8,219.3z"/>
	<path class="st3" d="M233.5,245.5c-2,0-4.1,0-6.9,0c5.7-14.7,11.3-28.8,16.7-43.1c1.7-4.4,4.3-7.3,8.7-9.4
		c10.8-5.1,18.8-13.1,22.7-24.8c0.6-2,1.4-4.4-0.8-5.8c-1.9-1.2-3.5,0.4-5.2,1.5c-4.1,2.7-6.9,7.3-12.1,8.2
		c-2.4-2.1-1.2-4.1-0.4-6.3c6.2-17,14.9-33.1,20.8-50.2c5.8-17.1-0.8-33-22.2-33.6c-16.9-0.5-30.1,6.8-41.8,17.9
		c-20.3,19.3-34.2,42.9-44.8,68.6c-1.7,4.2-4.1,6.3-8.4,7.8c-19.5,6.3-35.7,17.1-47,34.7c-10.4,16.1-13,33.4-7.1,51.4
		c3.4,10.6,11.7,17,22.9,18.4c11,1.4,20.5-1,27.6-10.9c6.8-9.4,10.9-19.9,15.3-30.3c5.7-13.2,10.1-26.9,13.9-40.8
		c0.6-2.1,0.7-4.9,3.1-5.1c7.7-0.6,15.4-1.5,23.3,0.9c-1.4,3.4-2.6,6.4-3.9,9.3c-7.1,16.6-15.2,32.9-18.6,50.9
		c-2.3,12.3,4.9,21.5,17.3,21.9c13.8,0.3,28.7-11.3,31.7-24.7C239.2,247.9,237.8,245.6,233.5,245.5z M150.4,209.6
		c-2.2,11.3-7.8,21.2-12.9,31.2c-1.2,2.5-3,4.6-6.3,3.2c-3.3-1.5-4.1-4.2-3.2-7.5c1.8-7.2,6-13.2,11-18.5c3.2-3.4,5.9-7.7,10.8-9.1
		c0.4-0.4,0.8-0.7,1.1-0.1C150.9,208.9,150.5,209.3,150.4,209.6z M221.2,170.3c-2.6,2.8-5.9,1.1-8.9,1.2c-3.9,0.1-8,1.2-11.9-0.7
		c-12.8,0.7-13,0.5-7.6-11.1c5.7-12.3,12.7-23.8,21.9-33.9c2.4-4.4,6.3-7.3,9.9-10.6c5.8-6.3,10.6-13.9,20.8-13.8
		c4.6,0,5.2,2.1,3.8,5.6c-3.7,9.3-7.4,18.6-11.3,27.8c-3.9,9.4-7.9,18.7-12,28C224.8,165.6,224,168.6,221.2,170.3z"/>
</g>
<g>
	<path class="st3" d="M150.5,108c-0.9,0-1.7,0.3-2.5,0.5c-5.8,1.7-10.6,5.5-15.8,8.4c-6.8,3.8-13.9,6.6-21.9,6.5
		c-6.9,0-13.3-2.1-19.5-4.6c-5.1-2-10-4.7-14.3-8c0.1-0.5,0.1-0.7,0.2-0.9c8.5-12.2,13.4-25.5,12.8-40.6c0-0.8,0.3-1.4,0.9-2
		c7.9-7.3,13.7-16.2,18.9-25.5c3-5.4,5.8-11,6.7-17.2c0.8-4.9,1.4-10-1.3-14.6c-4.3-7.4-15.3-9.3-23-3.8
		c-11.8,8.5-16.5,20.8-18.1,34.7c-0.6,5.3-1,10.7-1.5,16.1c-6.5-2-8.5-5.7-6.8-11.9c1.1-4.1,3.4-7.7,5.4-11.5
		c-11.4-1.1-22.1,4.6-23.8,16.9c-0.7,4.6-0.7,9.5,3.8,12.7c1.9,1.3,3.8,2.5,5.8,3.6c4.7,2.5,9.8,4.1,14.7,5.3
		c0.6,1.6-0.2,2.7-0.3,3.8c-0.4,9.2-2.7,17.8-7.2,25.8c-1.7,3-3.3,5.5-7.7,5.8c-6.4,0.3-12.9,1.6-19.1,3.4c-7.3,2-13,5.9-16.1,13.1
		c-1.7,3.9-0.9,6.3,2.6,8.7c5.5,3.8,11.7,3.2,17.6,2c8.7-1.8,16-6.5,22.8-12.1c1.8-1.5,3.5-1.6,5.7-1c7.2,2.2,14,5.4,20.9,8.2
		c10.9,4.4,21.7,5.8,32.9,0.9c6.1-2.7,11.7-6.2,17.5-9.3c4.3-2.3,8.5-4.8,11.9-8.5c0.9-1,1.8-2.1,1.1-3.4
		C153.2,108.3,151.8,108,150.5,108z M95.3,22.8c2.3-3.6,6.5-4.2,8.3-1.3c0.7,1.1,0.9,2.2,0.6,3.4c-2.3,8.4-6.3,15.9-12.6,22
		c-0.2,0.2-0.6,0.3-1.7,0.7C90.9,38.8,90.7,30.3,95.3,22.8z M39.6,124.3c-1.7,0.1-3.1-0.4-3.5-2.2c-0.3-1.6,1.1-2.2,2.3-2.7
		c4.3-1.8,8.9-2.1,13.6-1.7C48.3,120.9,44.8,124.1,39.6,124.3z"/>
	<path class="st3" d="M188.4,70.1c-2.6-6.8-7-12.5-10.7-18.6c-3.6-5.9-3.1-7.4,2.9-10.7c1.7-1,3.3-2.1,2.9-4.2
		c-0.4-2.4-2.6-2.9-4.5-3c-2.8-0.2-5.7-0.4-8.5,0c-5.7,0.7-11,2.3-15.2,6.7c-4.3,4.5-5.2,10.4-7.2,15.8c-1.2,3.2-1.8,6.6-4.3,10.1
		c-0.3-3.8-1.8-6.4-2.9-9.2c-3.4-8.7-12.2-13.4-20-11.1c-10.5,3.2-17.1,10.3-20.6,20.5c-3.1,9.3-3.8,18.9-2.4,28.6
		c1,7.2,3.6,13.8,9,18.7c7.5,6.9,18.4,4.6,24.9-1.4c6.8-6.3,9.5-14.6,12-23.1c0.8-2.9,1.9-5.5,3.8-7.8c5.6-6.6,9.8-14,11.6-22.7
		c0.3-1.6,0.4-3.4,1.8-5.1c5.9,7.1,11.8,14,14.5,22.8c1.4,4.5,0.7,9.1-4.1,12.3c-1-8.1-1.8-9-9.2-10.8c-5.2-1.3-9.3,0.4-11.5,5.3
		c-1.7,3.8-2.3,7.9-1.3,12.1c0.4,1.9,0.7,3.8,2.3,5.3c10.4,9.5,25.1,8.6,33.9-2.4C192.4,89.4,192.2,79.9,188.4,70.1z M123.6,100.7
		c-2.9,2.3-7.5,1.9-9.5-1.4c-5.6-9.3-5.9-23.1,0.6-32.4c0.2-0.2,0.5-0.4,1.2-1c0.8,10.6,3.7,19.4,15.8,22.1
		C129.4,93,127.7,97.6,123.6,100.7z M132.1,74.2c-4.6-0.5-7.8-6.6-6.9-13.1C131.5,63.7,133.8,68.3,132.1,74.2z"/>
</g>
</svg>
