<?xml version="1.0" encoding="utf-8"?>
<!-- Generator: Adobe Illustrator 21.0.0, SVG Export Plug-In . SVG Version: 6.00 Build 0)  -->
<svg version="1.1" id="Layer_1" xmlns="http://www.w3.org/2000/svg" xmlns:xlink="http://www.w3.org/1999/xlink" x="0px" y="0px"
	 viewBox="0 0 700 700" style="enable-background:new 0 0 700 700;" xml:space="preserve">
<style type="text/css">
	.st0{display:none;}
	.st1{fill:#542C82;}
	.st2{fill:#482270;}
	.st3{fill:#4E287A;}
	.st4{fill:none;stroke:#FEC424;stroke-width:8;stroke-miterlimit:10;}
	.st5{fill:none;stroke:#FFFFFF;stroke-width:8;stroke-miterlimit:10;}
	.st6{fill:#FEC424;}
	.st7{fill:#FFFFFF;}
</style>
<g id="Layer_1_1_" class="st0">
</g>
<g id="jersey">
	<path class="st1" d="M530,665V198c0,0-30-16-47-73c-11-47,5-105,5-105L424.8,4.9C423.5,16.7,413.6,81.1,351,82c-69,1-73-78-73-78
		l-67,16c0,0,18,55,5,105s-46,73-46,73v467c0,0,65,13,180,13S530,665,530,665z"/>
	<path class="st2" d="M530,665c0,0-65,13-180,13s-180-13-180-13s78,32,181,32S530,665,530,665z"/>
	<path class="st3" d="M351,82c62.6-0.9,72.5-65.3,73.8-77.1L417,3c0,0-13.5,27.5-66.5,27.5S282,3,282,3l-4,1C278,4,282,83,351,82z"
		/>
</g>
<g id="jersey-right">
	<path d="M531,198c0,0-14.5-7.8-29.1-31.7l-10.8,504.4c26.1-3,39.9-5.7,39.9-5.7V198z"/>
</g>
<g id="j-right-2">
	<line class="st4" x1="508" y1="184.1" x2="498.1" y2="668"/>
</g>
<g id="j-right-1">
	<line class="st5" x1="501" y1="177" x2="491" y2="672"/>
</g>
<g id="jersey-left">
	<path d="M171,198v467c0,0,13.4,2.7,38.9,5.6l-10.8-504.2C185.5,187.9,171,198,171,198z"/>
</g>
<g id="j-left-2">
	<line class="st4" x1="193.1" y1="184.1" x2="203" y2="668"/>
</g>
<g id="j-left-1">
	<line class="st5" x1="200" y1="176" x2="210" y2="671"/>
</g>
<g id="right_3">
</g>
<g id="right_2">
	<g>
		<path class="st6" d="M531,212c-1.7-1.1-45.8-31.2-57.1-84.2c-11.1-52.4,4.5-107.6,5.2-109.9L487,20c-0.2,0.6-15.9,55.8-5.2,106.2
			c10.5,49.7,48.8,75.6,49.2,75.8V212z"/>
	</g>
</g>
<g id="right_1">
	<g>
		<path class="st7" d="M531,202c-1.6-1.2-42.7-31.2-51.9-76.2c-9.1-44.3,4.4-104.2,5-106.7l7.8,1.8c-0.1,0.6-13.7,60.7-5,103.3
			c8.6,42,43.7,69.5,44.1,69.8V202z"/>
	</g>
</g>
<g id="left_3">
</g>
<g id="left_2">
	<g>
		<g>
			<path class="st6" d="M170,210v-10c0.4-0.3,37.6-25.1,48.1-74.8c10.6-50.3-5.7-104.5-5.9-105l7.6-2.4c0.7,2.3,17.2,56.6,6.1,109
				C214.7,179.8,171.7,208.9,170,210z"/>
		</g>
	</g>
</g>
<g id="left_1">
	<g>
		<path class="st7" d="M170,203v-3v-2v-5c0.3-0.2,31.6-20.2,42.1-68.8c10.6-49.4-4.8-102.5-4.9-103L215,19
			c0.7,2.2,16,55.4,4.9,106.8C208.7,177.9,171.5,202.1,170,203z"/>
	</g>
</g>
<g id="back_2">
	<path class="st5" d="M274,5c0,0,19,33,77,33s73.8-33.1,73.8-33.1"/>
</g>
<g id="back_1">
	<g>
		<path class="st6" d="M350.5,34.5C292.6,34.5,278,5,277.4,3.7l7.2-3.5c0.1,0.3,13.5,26.2,65.9,26.2c52.6,0,62.7-25.6,62.7-25.9
			l7.5,2.8C420.3,4.7,408.6,34.5,350.5,34.5z"/>
	</g>
</g>
<g id="top_3">
</g>
<g id="top_2">
	<g>
		<path class="st6" d="M352,93c-32.2,0-57.4-15.3-72.7-44.1C268,27.4,266.1,7.9,266,7l8-2c0,0.2,1.8,20.3,12.5,40.3
			C300.5,71.7,322.6,85,352,85c28.2,0,49.5-13.3,63.3-39.7C425.9,25.3,428,4.8,428,4.6l8,2.4c-0.1,0.9-2.2,20.4-13.5,41.9
			C407.4,77.7,383,93,352,93z"/>
	</g>
</g>
<g id="top_1">
	<g>
		<path class="st7" d="M349.8,86.5c-28.2,0-50.3-14.3-64-41.3C275.5,24.9,274.1,5.8,274,5l7-3c0,0.2,2.3,20.8,12,39.8
			c12.6,24.8,32.1,37.1,58,36.7c25.9-0.4,45.5-13,58.1-37.5c9.7-18.7,11.5-37.7,11.5-37.9L428,5c-0.1,0.8-1.5,19.4-11.8,39.5
			c-13.9,27.1-36.4,41.6-65.2,42C350.6,86.5,350.2,86.5,349.8,86.5z"/>
	</g>
</g>
</svg>
