<?xml version="1.0" encoding="utf-8"?>
<!-- Generator: Adobe Illustrator 21.0.0, SVG Export Plug-In . SVG Version: 6.00 Build 0)  -->
<svg version="1.1" id="Layer_1" xmlns="http://www.w3.org/2000/svg" xmlns:xlink="http://www.w3.org/1999/xlink" x="0px" y="0px"
	 viewBox="0 0 793.7 359.3" style="enable-background:new 0 0 793.7 359.3;" xml:space="preserve">
<style type="text/css">
	.st0{fill:none;}
	.st1{fill:#FFFFFF;}
	.st2{fill:#FEC424;}
</style>
<path class="st0" d="M519.1,105.7l4.2-12.1c0.1-0.2,0.1-0.4,0.2-0.6c0.3-1.7-0.1-3.6-0.7-5.1c-0.6-1.6-3.2-5.8-5.2-5.8h-18.9
	l-9.4,25.3l33.6,0L504.5,157h-20.3l-2.6-5c-1.7-3.4-3.4-6.1-6-7.7l-16.3,43.9h12.1c9.7,0,25.9-10.8,29-19.9l2.1-6.2h33.6l-8.9,26
	c2.3-0.8,5.8-5.2,6.8-6.7c1.5-2.3,2.9-4.9,3.8-7.5l32.3-94.1c0,0,0,0,0,0c-0.8-0.2-1.7-0.3-2.2-0.3h-5.7l-9,26.2H519.1z"/>
<path class="st0" d="M631.9,84.4c-0.1-0.6-0.5-1.9-1.1-2.3c-0.2-0.1-0.4-0.1-0.6-0.1h-7l-9.9,28.9c7.7-3.8,14.3-10.3,17.3-17.8
	C631.6,90.6,632.4,87.2,631.9,84.4z"/>
<path class="st0" d="M409.7,185.2c2-2.6,4.4-8.8,5.2-10.8L449,82.6c0,0,0-0.1,0.1-0.2c-2,0.4-4.7,2.2-5.7,3l-53.5,42.1l15.1,47.9
	C405.5,177.4,407.7,183,409.7,185.2z"/>
<path class="st0" d="M350,187.6c2.2-2.1-0.4-12-1.2-14.3l-3.4-10.9l-10.9,8.5l-5.3,13.4c0.2,1.4,2.8,3.7,4,3.8h7.5h6.2
	C347.6,188.3,349.4,188.2,350,187.6z"/>
<path class="st0" d="M218.6,38.3c-12.7,0-24.4,11.9-29.5,22.7l-59.6,125.6c7.2-4.4,15.4-15.8,19-20.7l88-118h42v131.8l34-86.5
	c1-2.4,3.5-10.7,2.4-13.6c-0.4-0.1-0.9-0.1-1.2-0.1h-13.5l12.5-31.6h334.6c17.4,0,30,7.8,34.5,21.6c1.4-1.9,3-3.7,4.6-5.4
	c13.7-14.3,31.6-20.8,51.2-20.9c16.9-0.1,35.1,3.5,49.6,12.6l6.5,4.1V0H242.6l-18.2,38.3H218.6z"/>
<path class="st0" d="M671.1,114.4c-2.2,2.8-4.6,5.5-7.1,7.9c-7.8,7.6-17.2,13.9-27.2,18.7c3.7,5.5,6.4,11.6,8.9,17.7
	c0.9,2.1,1.7,4.2,2.6,6.2l11.3-26.7h25.3l-0.8,9.9c-0.9,11.3,1.8,28.4,13.6,33.6c2,0.9,4.1,1.3,6.2,1.3c7.1,0,14.1-3.1,19.2-7.9
	c3.2-3,7-8.2,6.3-13c-0.4-3.2-3.1-5.3-5.7-6.8c-3.3-1.8-7.6-3.3-11.1-4.8c-5.9-2.4-11.7-5-17.2-8.1c-10.9-6.1-21.1-14.8-24.2-27.4
	C671.2,114.8,671.2,114.6,671.1,114.4z"/>
<polygon class="st0" points="226.8,138.2 227.6,122.5 216,138.2 "/>
<path class="st0" d="M362.5,99.9l-1.1,2.8l29.5-23.2c-0.3,0-0.5,0-0.8,0h-13.8C370,79.5,364.3,95.2,362.5,99.9z"/>
<path class="st0" d="M201.9,188.3c9.2,0,16.8-3.9,20.7-11l-35.7-0.1l-4.1,5.5c-0.4,0.6-1.8,2.6-1.4,3.5c0.6,1.7,6,2.2,7.4,2.2h7.4
	H201.9z"/>
<path class="st0" d="M774.4,105.7h-29.1l0.2-9.3c0.1-4.4-0.1-12.4-3.2-15.9c-1.8-2.1-4.8-2.5-7.4-2.5c-4.5-0.1-9.6,0.9-12.8,4.3
	c-2.1,2.2-3.1,5.3-2.7,8.3c0.5,4.2,3.3,7.2,7.2,8.5c17.2,5.8,36.5,14.7,45.3,31.6c6.8,13.2,5.5,27.8,0.9,41.4h21l-2.7,11.3
	c-7.2,30-24.1,54.5-53.3,66.4c-14.8,6-30.9,8.1-46.8,7.3c-33.7-1.7-58.2-16.8-73.1-46.9c-4.5-9.1-6.3-21.7-8.5-31.7
	c-1.5-6.8-4.5-20.6-10.5-25.5l-9.2,26.8c-0.6,1.6-1.7,6.7-0.7,8.4c0.2,0,0.5,0.1,0.7,0.1h12.8L591.5,220H220.4l-21.2,44.6H0.1
	l17.6-37.1h5.8c16.4,0,24.5-6.6,31.2-20.7l73-153.8c0.9-1.8,1.6-3.7,2.2-5.6c0.4-1.4,0.9-3.7,0.4-5.2c-1-3.7-12.2-4.1-14.9-4.1
	h-14.5L119.1,0H0v265h793.7V60L774.4,105.7z"/>
<path class="st1" d="M115.4,38.3c2.7,0,13.9,0.3,14.9,4.1c0.4,1.5,0,3.7-0.4,5.2c-0.5,1.9-1.3,3.8-2.2,5.6l-73,153.8
	c-6.7,14.1-14.8,20.7-31.2,20.7h-5.8L0.1,264.7h199.2l21.2-44.6h371.1l10.9-31.8h-12.8c-0.2,0-0.5,0-0.7-0.1c-1-1.8,0.1-6.8,0.7-8.4
	l9.2-26.8c6,4.9,9,18.7,10.5,25.5c2.2,10,4,22.6,8.5,31.7c14.9,30.1,39.5,45.3,73.1,46.9c15.9,0.8,32-1.3,46.8-7.3
	c29.1-11.9,46-36.4,53.3-66.4l2.7-11.3h-21c4.5-13.6,5.9-28.2-0.9-41.4c-8.7-16.9-28.1-25.8-45.3-31.6c-3.9-1.3-6.7-4.3-7.2-8.5
	c-0.4-3,0.6-6.1,2.7-8.3c3.2-3.4,8.3-4.4,12.8-4.3c2.6,0,5.6,0.5,7.4,2.5c3.1,3.5,3.3,11.5,3.2,15.9l-0.2,9.3h29.1L793.7,60v-0.3
	l-6.5-4.1C772.7,46.6,754.5,43,737.6,43c-19.7,0.1-37.5,6.7-51.2,20.9c-1.6,1.7-3.2,3.5-4.6,5.4c-4.5-13.8-17.1-21.6-34.5-21.6
	H312.7l-12.5,31.6h13.5c0.3,0,0.8,0,1.2,0.1c1.1,2.9-1.4,11.2-2.4,13.6l-34,86.5V47.9h-42l-88,118c-3.7,4.9-11.8,16.3-19,20.7
	L189.1,61c5.1-10.8,16.8-22.7,29.5-22.7h5.8L242.6,0H119.1l-18.2,38.3H115.4z M333.3,188.3c-1.3-0.2-3.9-2.5-4-3.8l5.3-13.4
	l10.9-8.5l3.4,10.9c0.7,2.3,3.3,12.2,1.2,14.3c-0.5,0.5-2.3,0.6-3,0.6h-6.2H333.3z M693,70.3c11.8-12.3,27.1-18,44.6-18.1
	c16.2-0.1,32.4,3.5,44.7,11.2l-14,33.1h-13.7c0.3-14.6-3-27.5-19.6-27.8c-29.4-0.5-32.3,32-11.4,39c35.1,11.8,53.3,29.2,38.8,66
	c-5.9,15.1-19.8,27.6-37.8,34.1c-30.7,11-57.7-1-71.9-29.4l13.2-31.1h9.3c-2,25.5,10.7,44.9,29.1,44.8c26.8-0.2,48.4-31.4,24.2-44.8
	c-9.8-5.4-43.1-13.8-48-34.4C677.3,101,680.3,83.5,693,70.3z M695.5,142.5c5.5,3.1,11.3,5.7,17.2,8.1c3.5,1.4,7.8,3,11.1,4.8
	c2.6,1.5,5.3,3.6,5.7,6.8c0.7,4.7-3.1,9.9-6.3,13c-5.1,4.8-12.2,7.8-19.2,7.9c-2.2,0-4.3-0.4-6.2-1.3c-11.8-5.2-14.5-22.3-13.6-33.6
	l0.8-9.9h-25.3l-11.3,26.7c-0.9-2.1-1.7-4.1-2.6-6.2c-2.5-6.1-5.2-12.2-8.9-17.7c10-4.7,19.4-11,27.2-18.7c2.5-2.4,4.9-5.1,7.1-7.9
	c0.1,0.2,0.1,0.5,0.2,0.7C674.3,127.7,684.6,136.4,695.5,142.5z M572.5,57h74.8c10.4,0,29.7,3.7,26.9,29.2
	c-2.2,19.6-24.3,41.9-53.3,51.2c14.3,9.9,16.1,30.6,29.9,53.2c25.2,41.3,89.2,37.1,115.8-9.4H782c-12.5,52-51.4,68.7-90.6,66.7
	c-39.3-1.9-56.3-23.6-65.4-41.8s-6.7-64.2-33.1-64.2l-12,35c-3.5,10-1.6,20.6,8.6,20.6l-4.6,13.4h-63l4.6-13.4
	c8.6,0,16.8-11.5,19.9-20.5l32.3-94.1c3.1-9-4.2-12.4-10.9-12.4L572.5,57z M567.9,79.5c0.5,0,1.5,0.1,2.2,0.3c0,0,0,0,0,0
	l-32.3,94.1c-0.9,2.6-2.2,5.2-3.8,7.5c-1,1.5-4.4,5.9-6.8,6.7l8.9-26h-33.6l-2.1,6.2c-3.1,9.1-19.4,19.9-29,19.9h-12.1l16.3-43.9
	c2.6,1.6,4.3,4.4,6,7.7l2.6,5h20.3l18.4-49.7l-33.6,0l9.4-25.3h18.9c2,0,4.6,4.2,5.2,5.8c0.6,1.6,1,3.5,0.7,5.1
	c0,0.2-0.1,0.4-0.2,0.6l-4.2,12.1h34.1l9-26.2H567.9z M124.9,9.2h103.2l-9.5,20c-16.4,0-31.1,13.8-37.8,27.9l-78.1,164.6h60
	c18.3,0,32.9-10.8,39.3-24.2c19.1,0,31.5-12.7,32.4-29.3l-52-0.2l-6.9,9.2c-7.6,10.2-1.5,20.3,13.3,20.3l-6.4,13.4h-64.4l6.4-13.4
	c12.1,0,22.8-14.4,31.5-26.1L241.1,57h28.2v126.1c0,17.4,12.3,13.6,16.7,2.6L321,96.6c3.3-8.4,7.6-26.2-7.3-26.2l5.2-13.3h62.7
	l-5.2,13.3c-12.1,0-18.2,15.5-22.4,26.2l-13.5,34.3L398,85.6c12.7-10,0.8-15.2-7.9-15.2l5.2-13.3h164.9l-13.6,39.5h-14.7
	c3.5-10.2-5.2-23.7-14.4-23.7h-25.2l-16.2,43.6h33.6l-11.6,31.3h-8.3c-4.1-8-9.3-14.2-20-14.2l-23.6,63.8h25.2
	c14.9,0,33.7-14.5,37.7-26.1h14.3l-13.6,39.5H341.7l5.3-13.4c12.4,0,15.9-10.1,10.6-26.9l-7.4-23.5l-23.2,18.3l-6.3,15.9
	c-2.9,7.4,5.7,16.2,12.6,16.2l-5.3,13.4H214.7l-21.2,44.6H14.6l8.9-18.7c22.9,0,32.8-11.7,39.5-25.9L136,57
	c5-10.4,9.7-27.9-20.6-27.9L124.9,9.2z M188.7,188.3c-1.4,0-6.7-0.5-7.4-2.2c-0.3-0.8,1-2.9,1.4-3.5l4.1-5.5l35.7,0.1
	c-3.8,7.1-11.5,11-20.7,11h-5.8H188.7z M390.1,79.5c0.2,0,0.5,0,0.8,0l-29.5,23.2l1.1-2.8c1.9-4.7,7.6-20.4,13.9-20.4H390.1z"/>
<path class="st1" d="M410.1,195c5.9,0,10.1-8.4,13.4-17.4l34.1-91.7c4.2-11.4-7.4-17.4-19.9-7.6l-58.5,46l17,53.9
	C398.3,184.8,403,195,410.1,195z M443.4,85.4c1-0.8,3.8-2.6,5.7-3c0,0.1,0,0.1-0.1,0.2l-34.1,91.7c-0.8,2.1-3.2,8.2-5.2,10.8
	c-2-2.2-4.2-7.8-4.8-9.8l-15.1-47.9L443.4,85.4z"/>
<path class="st1" d="M639.1,96.6c5.3-13.4,0-23.7-8.9-23.7h-13.6l-17.4,50.7C617.7,123.6,633.7,110,639.1,96.6z M613.2,111l9.9-28.9
	h7c0.2,0,0.4,0,0.6,0.1c0.6,0.4,1,1.6,1.1,2.3c0.5,2.8-0.3,6.2-1.3,8.8C627.6,100.7,620.9,107.2,613.2,111z"/>
<path class="st1" d="M238.5,92.6l-40.8,54.7h37.8L238.5,92.6z M226.8,138.2H216l11.7-15.7L226.8,138.2z"/>
<path class="st2" d="M136,57L63,210.9c-6.8,14.2-16.6,25.9-39.5,25.9l-8.9,18.7h178.9l21.2-44.6h113.3l5.3-13.4
	c-6.9,0-15.5-8.8-12.6-16.2l6.3-15.9l23.2-18.3l7.4,23.5c5.3,16.8,1.8,26.9-10.6,26.9l-5.3,13.4h168.1l13.6-39.5h-14.3
	c-4,11.6-22.7,26.1-37.7,26.1h-25.2l23.6-63.8c10.7,0,15.9,6.2,20,14.2h8.3l11.6-31.3h-33.6l16.2-43.6h25.2
	c9.2,0,17.9,13.5,14.4,23.7h14.7L560.2,57H395.4l-5.2,13.3c8.7,0,20.6,5.3,7.9,15.2l-57.6,45.3l13.5-34.3
	c4.2-10.7,10.3-26.2,22.4-26.2l5.2-13.3h-62.7l-5.2,13.3c15,0,10.7,17.8,7.3,26.2l-35.1,89.1c-4.3,11-16.7,14.8-16.7-2.6V57h-28.2
	l-85.2,114.3c-8.7,11.7-19.4,26.1-31.5,26.1l-6.4,13.4h64.4l6.4-13.4c-14.8,0-20.9-10-13.3-20.3l6.9-9.2l52,0.2
	c-0.9,16.6-13.3,29.3-32.4,29.3c-6.4,13.4-20.9,24.2-39.3,24.2h-60L180.8,57c6.7-14.2,21.4-27.9,37.8-27.9l9.5-20H124.9l-9.5,20
	C145.7,29.1,141,46.6,136,57z M437.7,78.2c12.5-9.9,24.2-3.8,19.9,7.6l-34.1,91.7c-3.4,9-7.5,17.4-13.4,17.4
	c-7.1,0-11.8-10.2-13.9-16.8l-17-53.9L437.7,78.2z M197.7,147.3l40.8-54.7l-3,54.7H197.7z"/>
<path class="st2" d="M728.2,147.3c24.2,13.3,2.6,44.6-24.2,44.8c-18.3,0.1-31.1-19.2-29.1-44.8h-9.3l-13.2,31.1
	c14.3,28.4,41.3,40.4,71.9,29.4c18.1-6.5,31.9-19,37.8-34.1c14.5-36.9-3.6-54.2-38.8-66c-20.9-7-18-39.5,11.4-39
	c16.6,0.3,19.9,13.2,19.6,27.8h13.7l14-33.1c-12.3-7.7-28.5-11.3-44.7-11.2c-17.5,0.1-32.8,5.9-44.6,18.1
	c-12.7,13.2-15.7,30.6-12.8,42.6C685.1,133.5,718.4,141.9,728.2,147.3z"/>
<path class="st2" d="M578.8,82.8l-32.3,94.1c-3.1,9-11.2,20.5-19.9,20.5l-4.6,13.4h63l4.6-13.4c-10.2,0-12.1-10.6-8.6-20.6l12-35
	c26.4,0,24,46,33.1,64.2s26.1,39.9,65.4,41.8c39.3,1.9,78.2-14.7,90.6-66.7h-15.5c-26.5,46.6-90.6,50.7-115.8,9.4
	c-13.8-22.6-15.7-43.3-29.9-53.2c29-9.3,51.2-31.5,53.3-51.2C677,60.7,657.7,57,647.3,57h-74.8l-4.6,13.3
	C574.6,70.3,581.9,73.8,578.8,82.8z M616.6,72.9h13.6c8.9,0,14.2,10.2,8.9,23.7c-5.3,13.4-21.4,27-39.9,27L616.6,72.9z"/>
</svg>
