<?xml version="1.0" encoding="utf-8"?>
<!-- Generator: Adobe Illustrator 21.0.0, SVG Export Plug-In . SVG Version: 6.00 Build 0)  -->
<svg version="1.1" id="Layer_1" xmlns="http://www.w3.org/2000/svg" xmlns:xlink="http://www.w3.org/1999/xlink" x="0px" y="0px"
	 viewBox="0 0 700 700" style="enable-background:new 0 0 700 700;" xml:space="preserve">
<style type="text/css">
	.st0{display:none;}
	.st1{fill:#FEC424;}
	.st2{fill:#D2A31F;}
	.st3{fill:#E7B223;}
	.st4{fill:#FFFFFF;}
	.st5{fill:#542C82;}
	.st6{fill:none;stroke:#FFFFFF;stroke-width:8;stroke-miterlimit:10;}
	.st7{fill:none;stroke:#542C82;stroke-width:8;stroke-miterlimit:10;}
	.st8{fill:#FEC424;stroke:#BBBBBB;stroke-miterlimit:10;}
	.st9{fill:#542C82;stroke:#BBBBBB;stroke-miterlimit:10;}
	.st10{fill:#FFFFFF;stroke:#BBBBBB;stroke-miterlimit:10;}
	.st11{fill:#549BFA;}
	.st12{fill:#070D9E;}
</style>
<g id="Layer_1_1_" class="st0">
</g>
<g id="jersey">
	<path class="st1" d="M530,665V198c0,0-30-16-47-73c-11-47,5-105,5-105L424.8,4.9C423.5,16.7,413.6,81.1,351,82c-69,1-73-78-73-78
		l-67,16c0,0,18,55,5,105s-46,73-46,73v467c0,0,65,13,180,13S530,665,530,665z"/>
	<path class="st2" d="M530,665c0,0-65,13-180,13s-180-13-180-13s78,32,181,32S530,665,530,665z"/>
	<path class="st3" d="M351,82c62.6-0.9,72.5-65.3,73.8-77.1L417,3c0,0-13.5,27.5-66.5,27.5S282,3,282,3l-4,1C278,4,282,83,351,82z"
		/>
</g>
<g id="right_3">
	<g>
		<path class="st4" d="M530,219c-1.9-1.1-51.6-29.2-63.8-93.3c-12.1-63.4,5.5-108.4,6.2-110.2L480,18l0,0l-0.2,0.5
			c-0.2,0.4-17.4,44.8-5.8,105.8c11.5,60.3,55.6,86,56,86.3V219z"/>
	</g>
</g>
<g id="right_2">
	<g>
		<path class="st5" d="M530,211c-1.7-1.1-44.8-30.2-56.1-83.2c-11.1-52.4,4.5-107.6,5.2-109.9L487,20c-0.2,0.6-15.9,55.8-5.2,106.2
			c10.5,49.7,47.8,75.6,48.2,75.8V211z"/>
	</g>
</g>
<g id="right_1">
	<g>
		<path class="st4" d="M530,202c-1.6-1.2-41.7-31.2-50.9-76.2c-9.1-44.3,4.4-104.2,5-106.7l7.8,1.8c-0.1,0.6-13.7,60.7-5,103.3
			c8.6,42,42.7,68.5,43.1,68.8V202z"/>
	</g>
</g>
<g id="left_3">
	<g>
		<path class="st4" d="M170,219v-10c0.4-0.3,42.6-24.4,54.1-84.7c11.6-61.1-5.6-105.3-5.8-105.8l7.4-3c0.8,1.9,18.3,46.8,6.2,110.2
			C219.7,189.8,171.9,217.9,170,219z"/>
	</g>
</g>
<g id="left_2">
	<g>
		<path class="st5" d="M170,210v-10c0.4-0.3,37.6-25.1,48.1-74.8c10.6-50.3-5.7-104.5-5.9-105l7.6-2.4c0.7,2.3,17.2,56.6,6.1,109
			C214.7,179.8,171.7,208.9,170,210z"/>
	</g>
</g>
<g id="left_1">
	<g>
		<path class="st4" d="M170,203v-3v-2v-5c0.3-0.2,31.6-20.2,42.1-68.8c10.6-49.4-4.8-102.5-4.9-103L215,19
			c0.7,2.2,16,55.4,4.9,106.8C208.7,177.9,171.5,202.1,170,203z"/>
	</g>
</g>
<g id="back_2">
	<path class="st6" d="M274,5c0,0,19,33,77,33s73.8-33.1,73.8-33.1"/>
</g>
<g id="back_1">
	<path class="st7" d="M281,3c0,0,13.5,28.5,69.5,28.5S417,3,417,3"/>
</g>
<g id="top_3">
	<g>
		<path class="st4" d="M351,100c-43.8,0-66.8-25.3-78.4-46.6C260.2,30.7,258.1,9.9,258,9l8-2.4c0,0.2,2.1,21.9,13.8,43.2
			C295.1,77.8,319.1,92,351,92c32,0,55.8-14.3,70.8-42.4C433.2,28.3,435,6.9,435,6.7l8,2.3c-0.1,0.9-2,21.7-14.1,44.4
			C417.6,74.6,394.8,100,351,100z"/>
	</g>
</g>
<g id="top_2">
	<g>
		<path class="st5" d="M352,93c-32.2,0-57.4-15.3-72.7-44.1C268,27.4,266.1,7.9,266,7l8-2c0,0.2,1.8,20.3,12.5,40.3
			C300.5,71.7,322.6,85,352,85c28.2,0,49.5-13.3,63.3-39.7C425.9,25.3,428,4.8,428,4.6l8,2.4c-0.1,0.9-2.2,20.4-13.5,41.9
			C407.4,77.7,383,93,352,93z"/>
	</g>
</g>
<g id="top_1">
	<g>
		<path class="st4" d="M349.8,86.5c-28.2,0-50.3-14.3-64-41.3C275.5,24.9,274.1,5.8,274,5l7.5-1.9c0,0.2,1.8,19.7,11.5,38.6
			c12.6,24.8,32.1,37.1,58,36.7s45.5-13,58.1-37.5c9.7-18.7,11.5-37.7,11.5-37.9l7.4,2c-0.1,0.8-1.5,19.4-11.8,39.5
			c-13.9,27.1-36.4,41.6-65.2,42C350.6,86.5,350.2,86.5,349.8,86.5z"/>
	</g>
</g>
<g id="colors">
	<rect x="-60.5" y="0.8" class="st8" width="40" height="40"/>
	<rect x="-60.5" y="50.8" class="st9" width="40" height="40"/>
	<rect x="-60" y="101.3" class="st10" width="40" height="40"/>
</g>
<rect x="-60.3" y="151.3" class="st11" width="40" height="40"/>
<rect x="-60.3" y="201.3" class="st12" width="40" height="40"/>
<rect x="-59.8" y="251.8" class="st4" width="40" height="40"/>
</svg>
