<?xml version="1.0" encoding="utf-8"?>
<!-- Generator: Adobe Illustrator 21.0.0, SVG Export Plug-In . SVG Version: 6.00 Build 0)  -->
<svg version="1.1" id="Layer_1" xmlns="http://www.w3.org/2000/svg" xmlns:xlink="http://www.w3.org/1999/xlink" x="0px" y="0px"
	 viewBox="0 0 793.7 359.3" style="enable-background:new 0 0 793.7 359.3;" xml:space="preserve">
<style type="text/css">
	.st0{fill:#FEC424;}
	.st1{fill:#542C82;}
	.st2{fill:#FFFFFF;}
	.st3{fill:#549BFA;}
	.st4{fill:#070D9E;}
</style>
<g id="colors">
	<rect x="-60.5" y="2.6" class="st0" width="40" height="40"/>
	<rect x="-60.5" y="52.6" class="st1" width="40" height="40"/>
	<rect x="-60" y="103.1" class="st2" width="40" height="40"/>
</g>
<path class="st3" d="M483.2,161.5c-22.2,27-34.8,36.2-57.4,36.2c-7.7,0-11.7-1.7-9.6-5.5l26.8-53.9h10.2c11.4,0,9.8,9.6,6.7,22.6
	c-0.6,1.8,0.8,1.9,2.2,0.3l25.5-44.8c1.2-2.8-2-3.4-3.6-1.2c-12.8,17.3-26.2,16-31.8,16h-4.6l28.6-54.6h11.5
	c14.5,0.9,21.3,13.2,17.1,43h6l21-41.5c1.7-3.5-1.9-6.7-5.9-6.7l-142.8,0c-8.3,0-8.6,6.3-0.7,6.3c6.4,0,6.1,9.2,0.3,13.7l-60.6,48.1
	l12.2,56.8c0.9,4.3,3.7,6.3,8.4,6.3h118c4.9,0,6.9-2,8.5-4l21.4-36.9C493.8,156.7,486.9,157,483.2,161.5 M401,135.6l-10.4-0.1
	c-0.7,0-1.3,0.6-1.3,1.3c0,0.7,0.6,1.3,1.3,1.3l10.5-0.1c3.6,0,6.8,0.5,5.9,2l-27.3,52.1c-3.4,6.2-10.6,4.6-11.7-0.3L354.5,122
	l47.5-36.9c4.7-4.1,13.8-10.7,18.5-10.6l10.4,0c6.3-0.1,8.5,2.9,7.1,6.7l-1.8,3.5c-1.2,2-4.9,2.2-8.1,2.2l-6,0
	c-0.7,0-1.3,0.6-1.3,1.3c0,0.7,0.6,1.3,1.3,1.3l5.9,0c2.5,0,5.8,0.1,4.6,2l-22.1,42C409.4,135.3,404.9,135.6,401,135.6"/>
<path class="st3" d="M303,196.6c-3.2-0.1-5.3-2.3-6-4.4c-1-3.1-0.9-8.4,0.3-10.8l55.1-97.7c0.9-1.8,3.1-5.6,5.9-5.6
	c4.8,0,7-6.4-1.3-6.4h-44.1c-8.2,0-8.3,6.3-0.4,6.3c3.2,0,4.5,3.2,3.6,5.1l-12.2,22.1c-1.5,2.4-4.9,2.6-8.5,2.6l-10.5,0
	c-0.7,0-1.3,0.6-1.3,1.3c0,0.7,0.6,1.3,1.3,1.3l10.4,0c2.8,0,5.1,0.9,3.4,4.1l-40.6,74.1c-2.9,4.1-8.8,5-8.4-2.8l14.5-108.5
	c0.6-3.4-0.3-5.7-3.9-5.7l-21.8,0c-2.6,0-4.2,1.3-5.5,3l-7.8,9.8c-1,1-3.2,1-5.6,1l-18.3,0c-0.7,0-1.3,0.6-1.3,1.3
	c0,0.7,0.6,1.3,1.3,1.3h14.9c2.7,0,5.8,0.6,4.6,1.9l-21,26.4c-0.6,0.7-2.7,0.9-3.9,0.9l-5.9,0c-0.7,0-1.3,0.6-1.3,1.3
	c0,0.7,0.6,1.3,1.3,1.3l4.9,0c1.5,0,1.5,0.8,0.9,1.4L176.1,146c-1,1-3,1.2-4.9,1.2l-17.4,0c-0.7,0-1.3,0.6-1.3,1.3
	c0,0.7,0.6,1.3,1.3,1.3l14.9,0c2.3,0,4,0.4,2.8,1.9l-28,35.1c-5.3,6.7-30.6,10.1-35.6,10.1l94.8-177.3c0.9-2,4.4-5.1,8.1-5.1h20.1
	c9.5,0,9.2-6.3,1-6.3H130.7c-8.2,0-8.6,6.3,0.9,6.3h18.7c5.3,0,7,3.2,5.7,5.8l-2.7,4.9c-0.9,1.6-2.1,2.2-7.3,2.2l-33.1,0
	c-0.7,0-1.3,0.6-1.3,1.3c0,0.7,0.6,1.3,1.3,1.3l33,0c1.8,0,4.5,0.5,2.8,3.7l-4.6,8.6c-0.8,1.3-2.8,1.9-5.1,1.9l-15,0
	c-0.7,0-1.3,0.6-1.3,1.3c0,0.7,0.6,1.3,1.3,1.3l14.9,0c2.1,0,2.2,1.4,0.9,3.4l-10.7,19.8c-0.9,1.7-2.6,1.9-6,1.9l-6,0
	c-0.7,0-1.3,0.6-1.3,1.3c0,0.7,0.6,1.3,1.3,1.3l5.9,0c2.3,0,2.8,1.3,1.8,3.4l-8.7,16.3c-1.3,2.3-3.2,3.2-9,3.2l-33.1,0
	c-0.7,0-1.3,0.6-1.3,1.3c0,0.7,0.6,1.3,1.3,1.3h33c3.7,0.1,5.1,1.7,3.6,4.4l-17.1,32.1c-1,1.4-3.8,1.6-8.5,1.6l-33.1,0
	c-0.7,0-1.3,0.6-1.3,1.3c0,0.7,0.6,1.3,1.3,1.3h33c4,0,6.4,0.2,5.2,2.3l-9.8,18.5c-1.8,2.8-6.9,2.8-8.9,2.8l-10.5,0
	c-0.7,0-1.3,0.6-1.3,1.3c0,0.7,0.6,1.3,1.3,1.3h10.4c3.7,0,5.6,0.6,4.7,2.6l-13.1,24.7c-1.2,2.2-6.3,2.3-10.3,2.3l-51.2,0
	c-0.7,0-1.3,0.6-1.3,1.3c0,0.7,0.6,1.3,1.3,1.3l51.1,0c3.4,0,7.7,0.4,6.1,3.1l-8.4,15.8c-0.8,1.3-3.7,1.4-7.8,1.4l-10.5,0
	c-0.7,0-1.3,0.6-1.3,1.3c0,0.7,0.6,1.3,1.3,1.3h10.4c2.5,0,5.6,0.3,4.6,2.2l-5.3,10.1c-1.7,2.5-3.4,4.7-7.4,4.7H8.5
	c-9.5,0-9.2,6.3-0.9,6.3l150.8,0.1c4.4,0,4.6-0.6,6.6-3.8l22.4-39l114.3,0C309.9,202.9,307.8,196.7,303,196.6 M213.3,184.9
	c-1.1,6.4-7.6,10.7-15.7,12.8l-8.4,2.1l6.9-12.4c1.8-3.4-2.2-5.4-6.5-0.3c-29.2,34-38.5,50.3-83.5,50.4l-12.1,0
	c-3.7,0-7.7-1.4-5.2-4.9l15.9-29.7l60.5,0c8.2,0,6.1-6.2,1.3-6.4c-3.2-0.1-6.7-1.9-9.2-5.9c-0.7-1.1-2.2-5.4,0.2-8.7l23.2-30.8h38.5
	L213.3,184.9z M222,146h-37.6L232,83.4L222,146z"/>
<path class="st3" d="M793.6,165.4c-0.6-3.1-1.8-1.2-3.8,2.7c-0.6,1.2-2.6,1.2-4.6,1.2l-6,0c-0.7,0-1.3,0.6-1.3,1.3
	c0,0.7,0.6,1.3,1.3,1.3l5.9,0c2.3,0,2.3,1.5,1.2,3.8c-4.2,8.9-8.4,14.8-14.1,21.9c-0.9,1.1-3.2,2.1-5,2.1l-6.1,0
	c-0.7,0-1.3,0.6-1.3,1.3c0,0.7,0.6,1.3,1.3,1.3h5.9c3,0,0,1.8-0.5,2.5C756,219,748.8,225.3,741,231.6c-0.9,0.7-5.3,0.5-8.3,0.5l-6,0
	c-0.7,0-1.3,0.6-1.3,1.3c0,0.7,0.6,1.3,1.3,1.3l5.9,0c4.5,0,1.1,2.6,0.4,3.2c-16.4,13.7-40.9,18.1-52.1,16.7
	c-36.4-4.6-43.9-32.1-46.5-43.2c-0.6-2.3-2.3-7-2.9-9.9c-1.1-5.8,15.3-7.4,19.8-4.4c6.9,4.6,22.9,9.3,35.5,9.4
	c11.6,0,35.5-8.4,42.4-28.4c7.1-20.5-10.7-43.2-18.5-51.1c-10-10-19.5-25.9-15.5-37.6c3-8.8,8-12.8,18.8-12.8c13.9,0,24,8.9,24,21.6
	c0,1.1-0.7,2.5-1.6,2.5l-4.9,0c-0.7,0-1.3,0.6-1.3,1.3c0,0.7,0.6,1.3,1.3,1.3h4.6c1.3,0,2.1,1,1.8,2.6c-0.9,4.2-1.2,7.2-2.1,11.5
	c-0.5,2.5,3.1,4.2,4.3,2.4l21.9-39c1.6-2.9-1.9-3.7-4.5-2.8c-6,2.1-15.7,3.5-19.2,1c-8.2-5.9-15.6-9.6-27-9.6
	c-19.4,0-33,4.8-41.7,20.8c-0.7,1.2-2.6,1.2-4.2,1.2l-3.7,0c-0.7,0-1.3,0.6-1.3,1.3c0,0.7,0.6,1.3,1.3,1.3l3.2,0
	c1.4,0,2.3,0.4,1.6,2c-0.6,1.4-1.1,3-1.6,4.5c-2.2,6.9-1.5,16.6,2,25.3c0.2,0.6-0.5,0.8-1.8,0.8l-6,0c-0.7,0-1.3,0.6-1.3,1.3
	c0,0.7,0.6,1.3,1.3,1.3h6c2.7,0,3.3,0.3,4.4,1.9c3.1,4.3,6.2,7.5,10.2,12.5c1.2,1.6-4.1,2-6.9,2l-23.6,0c-0.7,0-1.3,0.6-1.3,1.3
	c0,0.7,0.6,1.3,1.3,1.3l23.9,0c3.8,0,10.4-0.1,11.2,0.8c5.8,6.7,12.7,16.9,13.9,25.6c0.3,2.5-0.6,3.5-3.7,3.5l-3.2,0
	c-0.7,0-1.3,0.6-1.3,1.3c0,0.7,0.6,1.3,1.3,1.3h2.8c2.4,0,3.8,0.4,3.2,2.2c-3.1,9.9-7.7,17-26.6,16.9c-19.8-0.1-23.8-19.5-18-39.7
	c1.2-4,0-5.8-1.9-2.6L636.8,179c-0.3,0.5-1.7,1.7-3.8,1.7h-2c-0.7,0-1.3,0.6-1.3,1.3c0,0.7,0.6,1.3,1.3,1.3c1.8,0,2.4,0.9,1.8,1.9
	l-5.1,7.9c-8.3-19-22.3-42.5-29.7-51l0.1-0.4c18.4-1.1,45.4-18.3,49.9-33.7c7.7-26.7-18.2-36.5-32.3-36.5l-62,0
	c-8.2,0-8.8,6.2-0.9,6.2c4.3,0,8,3.7,6.1,7.5l-13.8,24.8c-1.1,2-5.4,1.9-10.9,1.9h-6c-0.7,0-1.3,0.6-1.3,1.3c0,0.7,0.6,1.3,1.3,1.3
	h5.9c4,0,8.3,0.2,6.8,3.1l-16.3,29.3c-0.8,1.4-2.9,1.5-8.4,1.5l-6,0c-0.7,0-1.3,0.6-1.3,1.3c0,0.7,0.6,1.3,1.3,1.3l5.9,0
	c4.4,0,6,0.6,4.7,2.8l-21.7,39.2c-2.6,2.8-5.7,3.4-11,3.4c-7.9,0-7.8,6.3,0.4,6.3h53.1c8.2,0,6.1-6.4,1.3-6.4c-2.9,0-5.9-5.3-4-8.4
	l27.1-51.4h2.8c12.1,0,15,19.8,17.3,41.4c0.2,1.5-2.8,1.6-8.8,1.6l-15.1,0c-0.7,0-1.3,0.6-1.3,1.3c0,0.7,0.6,1.3,1.3,1.3h14.9
	c4,0,9.5,0,9.6,1.3c1,9.5,1.8,17.8,3.6,25.4c0.6,2.4-3.7,2-8.2,2l-19.2,0c-0.7,0-1.3,0.6-1.3,1.3c0,0.7,0.6,1.3,1.3,1.3l19.2,0
	c6,0,9.1,0,9.5,1.2c8.3,30.3,43.7,54.2,78.2,52.8c29.6-1.1,54.5-17.2,67.3-27.5c17-13.6,42-42.2,52.2-63
	C791.3,173.7,794.3,168.8,793.6,165.4 M594.8,125.1c-4.1,3.4-10.7,7.3-11.9,6.1c-1.8-1.7-7.3-5.5-10.2-6.9l24.6-45
	c1-1.6,2.2-2.4,4.9-2.4c9.6,0,12.7,10.4,8.2,23.3C607.3,109.2,602.2,119,594.8,125.1"/>
<rect x="-60.3" y="156.3" class="st3" width="40" height="40"/>
<rect x="-60.3" y="206.3" class="st4" width="40" height="40"/>
<rect x="-59.8" y="256.8" class="st2" width="40" height="40"/>
</svg>
